HIERARCHY
ROOT root
{
	OFFSET	0	13.1	24.9
	CHANNELS 6  Xposition Yposition Zposition Xrotation Yrotation Zrotation
	JOINT spine_1
	{
		OFFSET	0	9.99999	0
		CHANNELS 3  Xrotation Yrotation Zrotation
		JOINT spine_2
		{
			OFFSET	0	112	-10
			CHANNELS 3  Xrotation Yrotation Zrotation
			JOINT spine_3
			{
				OFFSET	0	206.5	19.3
				CHANNELS 3  Xrotation Yrotation Zrotation
				JOINT spine_4
				{
					OFFSET	0	110.4	14.6
					CHANNELS 3  Xrotation Yrotation Zrotation
					JOINT neck_1
					{
						OFFSET	0	71.8	-50.3
						CHANNELS 3  Xrotation Yrotation Zrotation
						JOINT neck_2
						{
							OFFSET	0	86.2	-25.8
							CHANNELS 3  Xrotation Yrotation Zrotation
							JOINT head_ee
							{
								OFFSET	0	179.8	-8.7
								CHANNELS 3  Xrotation Yrotation Zrotation
								End Site
								{
									OFFSET	1	0	0
								}
							}
						}
					}
					JOINT left_clavicle
					{
						OFFSET	-43.2	22.4	-70.8
						CHANNELS 3  Xrotation Yrotation Zrotation
						JOINT left_shoulder
						{
							OFFSET	-93.9	-5.79999	48.7
							CHANNELS 3  Xrotation Yrotation Zrotation
							JOINT left_elbow
							{
								OFFSET	-291.4	-30.8	15.2
								CHANNELS 3  Xrotation Yrotation Zrotation
								JOINT left_lowarm_twist
								{
									OFFSET	-110.7	-3.89999	13.6
									CHANNELS 3  Xrotation Yrotation Zrotation
									JOINT left_hand
									{
										OFFSET	-110.7	-3.89999	13.6
										CHANNELS 3  Xrotation Yrotation Zrotation
										JOINT left_ee
										{
											OFFSET	-80.8	-5.10001	12.1
											CHANNELS 3  Xrotation Yrotation Zrotation
											End Site
											{
												OFFSET	1	0	0
											}
										}
									}
								}
							}
						}
					}
					JOINT right_clavicle
					{
						OFFSET	43.2	22.4	-70.8
						CHANNELS 3  Xrotation Yrotation Zrotation
						JOINT right_shoulder
						{
							OFFSET	93.9	-5.79999	48.7
							CHANNELS 3  Xrotation Yrotation Zrotation
							JOINT right_elbow
							{
								OFFSET	291.4	-30.8	15.2
								CHANNELS 3  Xrotation Yrotation Zrotation
								JOINT right_lowarm_twist
								{
									OFFSET	110.7	-3.89999	13.6
									CHANNELS 3  Xrotation Yrotation Zrotation
									JOINT right_hand
									{
										OFFSET	110.7	-3.89999	13.6
										CHANNELS 3  Xrotation Yrotation Zrotation
										JOINT right_ee
										{
											OFFSET	80.8	-5.10001	12.1
											CHANNELS 3  Xrotation Yrotation Zrotation
											End Site
											{
												OFFSET	1	0	0
											}
										}
									}
								}
							}
						}
					}
				}
			}
		}
	}
	JOINT left_hip
	{
		OFFSET	-82.8	-127.5	0.300001
		CHANNELS 3  Xrotation Yrotation Zrotation
		JOINT left_knee
		{
			OFFSET	-28.2	-396.7	2.2
			CHANNELS 3  Xrotation Yrotation Zrotation
			JOINT left_ankle
			{
				OFFSET	-11.7	-411.3	35.4
				CHANNELS 3  Xrotation Yrotation Zrotation
				JOINT left_toes
				{
					OFFSET	0	-60	-88.6
					CHANNELS 3  Xrotation Yrotation Zrotation
					JOINT left_foot_ee
					{
						OFFSET	-22.5	-16.5	-42.2
						CHANNELS 3  Xrotation Yrotation Zrotation
						End Site
						{
							OFFSET	1	0	0
						}
					}
				}
			}
		}
	}
	JOINT right_hip
	{
		OFFSET	82.8	-127.5	0.300001
		CHANNELS 3  Xrotation Yrotation Zrotation
		JOINT right_knee
		{
			OFFSET	28.2	-396.7	2.2
			CHANNELS 3  Xrotation Yrotation Zrotation
			JOINT right_ankle
			{
				OFFSET	11.7	-411.3	35.4
				CHANNELS 3  Xrotation Yrotation Zrotation
				JOINT right_toes
				{
					OFFSET	0	-60	-88.6
					CHANNELS 3  Xrotation Yrotation Zrotation
					JOINT right_foot_ee
					{
						OFFSET	22.5	-16.5	-42.2
						CHANNELS 3  Xrotation Yrotation Zrotation
						End Site
						{
							OFFSET	1	0	0
						}
					}
				}
			}
		}
	}
}
MOTION
Frames: 16
Frame Time: 0.02
2892.8 689.124 -639.498 145.065 -72.6115 142.51 -3.14898 0.0019181 -0.400614 -3.14889 0.0274061 -0.39968 -3.14898 0.131781 -0.378325 -3.14917 0.070378 -0.394389 -4.94922 5.40669 2.9006 -4.9201 7.75652 3.88548 -0.0 0.0 -0.0 2.53889 -5.91119 4.42437 4.14863 -2.17436 66.2374 2.21465 -47.6439 0.977889 -66.1084 -6.0507 5.25039 0.253977 -10.8313 -2.89 -0.0 0.0 -0.0 3.78915 27.6815 -5.05629 -17.8835 24.7892 -69.9038 0.503908 14.016 -0.061944 7.86676 -0.210019 0.982159 5.36894 -16.8177 -44.7124 0.0 0.0 0.0 -34.4403 -8.15489 11.5815 -6.09134 0.202443 0.912484 11.293 22.9906 -1.65562 -28.1906 0.0 0.0 -0.0 0.0 -0.0 21.3674 29.2025 -1.52317 -2.87827 -0.107762 -0.428532 -23.4529 0.69931 -3.57519 -6.36719 0.0 0.0 0.0 0.0 0.0 
2919.68 690.047 -632.689 144.395 -73.368 141.247 -3.2085 -0.0606704 -0.404885 -3.20841 -0.0347838 -0.407925 -3.20804 0.0743765 -0.402593 -3.20827 0.00986167 -0.409286 -3.17097 4.84434 3.65091 -3.12946 5.9746 4.50102 -0.0 0.0 -0.0 2.1873 -5.08601 3.78648 1.84758 -2.55769 68.3956 2.22734 -47.8068 0.98728 -66.4617 -6.09554 5.25649 0.562234 -11.5312 -1.10933 -0.0 0.0 -0.0 3.92969 27.7709 -5.35184 -18.4197 25.4984 -67.5497 0.594007 16.3968 -0.0855817 9.04927 -0.229854 1.13191 4.90127 -17.1347 -40.6885 0.0 0.0 0.0 -31.533 -8.61156 11.7239 -12.3607 0.308435 1.8682 5.715 24.9155 -0.860191 -30.04 0.0 0.0 -0.0 0.0 -0.0 21.7987 29.5637 -1.99841 -7.22571 -0.229364 -1.08448 -19.6363 -5.2567 -2.95699 -0.108177 0.0 0.0 0.0 0.0 0.0 
2946.13 692.764 -626.806 142.362 -73.9977 138.584 -3.4474 -0.0746918 -0.255356 -3.44736 -0.0582916 -0.259591 -3.44704 0.0135707 -0.265709 -3.44714 -0.0285632 -0.264517 -3.39893 5.29417 3.47955 -3.35749 6.95129 4.39687 -0.0 0.0 -0.0 1.87362 -4.17664 3.23963 0.267024 -4.21826 69.4695 2.08302 -45.893 0.881975 -67.8199 -6.26816 5.27737 0.645168 -13.4112 -1.35934 -0.0 0.0 -0.0 3.90761 28.243 -5.25358 -17.8028 26.6197 -66.4787 0.652192 17.9045 -0.102741 9.51654 -0.236838 1.19118 5.01555 -17.521 -41.7441 0.0 0.0 0.0 -29.7261 -9.51173 10.7607 -14.7975 0.321321 2.24183 -7.57457 23.4405 1.16384 -32.2397 0.0 0.0 -0.0 0.0 -0.0 21.2199 29.3477 -0.958185 -10.4998 -0.287901 -1.58341 -20.2803 -5.05867 -3.05527 -1.12904 0.0 0.0 0.0 0.0 0.0 
2967.91 692.418 -620.633 140.297 -74.4923 136.254 -3.63021 -0.0510884 -0.188516 -3.63019 -0.0389892 -0.191385 -3.63002 0.0144675 -0.194779 -3.63008 -0.0164758 -0.19462 -3.56062 5.70196 3.12914 -3.52085 7.98373 4.10256 -0.0 0.0 -0.0 1.89931 -3.1589 3.38217 -0.452524 -4.58115 70.4959 1.77365 -41.2992 0.668469 -68.393 -6.34113 5.28494 1.06972 -15.2057 0.713053 -0.0 0.0 -0.0 4.57972 25.9563 -6.95358 -16.0953 26.5373 -64.272 0.638805 17.5598 -0.0986641 9.55095 -0.237334 1.19555 4.599 -17.6409 -38.3064 0.0 0.0 0.0 -28.2317 -10.3575 9.99415 -20.0289 0.295295 3.04377 -11.1862 24.0835 1.73228 -32.6767 0.0 0.0 -0.0 0.0 -0.0 21.4247 28.9453 -1.43687 -15.5328 -0.322087 -2.35464 -14.8428 -9.46219 -2.22477 8.93565 -0.0 -0.0 0.0 0.0 0.0 
2993.36 697.09 -615.928 141.256 -73.7811 137.168 -3.7767 0.293705 0.00126674 -3.77675 0.293029 0.0199536 -3.77671 0.276336 0.099513 -3.77661 0.288584 0.0546217 -3.3193 5.76839 3.66899 -3.27152 7.66028 4.66037 -0.0 0.0 -0.0 1.92421 -2.61462 3.47964 -0.950424 -4.75889 71.578 1.46748 -36.0128 0.477016 -70.2872 -6.58268 5.30474 0.671602 -14.5236 -1.66189 -0.0 0.0 -0.0 5.19712 26.4276 -8.24745 -16.2581 28.6727 -62.3431 0.595092 16.4252 -0.0858885 8.91322 -0.227729 1.11466 4.68334 -16.253 -38.6746 0.0 0.0 0.0 -24.3409 -11.0552 10.2186 -27.5092 0.13138 4.17918 -24.4353 24.3386 3.81789 -37.7732 0.0 0.0 -0.0 0.0 -0.0 20.0947 28.5185 -1.89526 -16.9291 -0.319558 -2.56884 -11.6734 -10.1074 -1.74449 7.70319 -0.0 -0.0 0.0 0.0 0.0 
3006.07 702.943 -611.405 137.072 -74.7071 133.194 -3.84631 0.194959 -0.0968325 -3.84632 0.200725 -0.0842305 -3.84666 0.216158 -0.0257177 -3.8466 0.209383 -0.0595331 -4.52678 6.12008 4.01614 -4.47603 8.17813 5.12313 -0.0 0.0 -0.0 1.81276 -2.0091 3.31442 -1.96429 -5.15575 73.0012 1.28587 -32.495 0.374752 -71.3117 -6.71352 5.3121 0.482989 -14.2824 -2.8256 -0.0 0.0 -0.0 5.5127 26.5148 -8.92547 -14.8403 29.4643 -58.823 0.593868 16.3932 -0.0855426 8.44265 -0.220065 1.05504 4.58505 -15.9602 -37.8035 0.0 0.0 0.0 -21.6269 -11.0397 8.16144 -32.412 -0.0558533 4.90807 -25.0679 24.4259 3.91835 -40.1336 0.0 0.0 -0.0 0.0 -0.0 19.332 28.1952 -2.31877 -18.8742 -0.307336 -2.86702 -7.67043 -9.94302 -1.13994 10.7345 -0.0 -0.0 0.0 0.0 0.0 
3020.81 702.301 -606.119 137.051 -75.0329 133.056 -3.94277 0.370044 0.134446 -3.94283 0.360739 0.157721 -3.94186 0.302966 0.251435 -3.94179 0.338874 0.200432 -4.54545 5.49049 2.61138 -4.51695 8.09081 3.58461 -0.0 0.0 -0.0 1.61679 -2.15789 2.91654 -3.1211 -5.19916 73.3402 1.09659 -28.5107 0.278614 -71.9582 -6.79613 5.31553 0.422764 -14.0932 -3.14947 -0.0 0.0 -0.0 5.78863 26.6703 -9.51058 -12.8682 30.0694 -57.0461 0.561348 15.5401 -0.0765968 8.39034 -0.219183 1.04841 4.42234 -15.3968 -36.3584 0.0 0.0 0.0 -19.5187 -9.72543 7.84105 -36.6553 -0.267807 5.52435 -25.4931 25.4597 4.00581 -40.2415 0.0 0.0 -0.0 0.0 -0.0 18.8304 27.8954 -2.61351 -20.0542 -0.294991 -3.04765 -4.87527 -10.6846 -0.72136 13.1831 -0.0 -0.0 0.0 0.0 0.0 
3034.08 702.656 -601.67 136.549 -75.628 132.682 -3.96435 0.603292 0.196214 -3.96452 0.589584 0.234207 -3.9622 0.501557 0.388464 -3.96197 0.556613 0.304376 -4.69965 5.18406 1.82039 -4.67934 8.14039 2.73368 -0.0 0.0 -0.0 1.63386 -1.99814 2.9648 -3.9201 -5.29128 73.7384 0.954493 -25.3057 0.214283 -72.4731 -6.86194 5.3176 0.364262 -13.9754 -3.4927 -0.0 0.0 -0.0 5.91603 27.1038 -9.74277 -11.4314 30.6756 -55.1769 0.555082 15.3749 -0.0749268 8.24051 -0.216622 1.02944 4.29944 -15.1772 -35.3323 0.0 0.0 0.0 -17.7801 -8.71287 7.22252 -39.2005 -0.41669 5.88605 -25.1111 25.5565 3.94792 -40.2015 0.0 0.0 -0.0 0.0 -0.0 18.4016 27.7267 -2.89615 -20.8306 -0.28484 -3.16635 -2.92594 -10.8399 -0.431336 14.9604 -0.0 -0.0 0.0 0.0 0.0 
3046.95 710.429 -598.262 134.215 -75.4795 130.164 -4.24185 0.528097 0.386539 -4.24191 0.50243 0.41936 -4.23806 0.363882 0.543956 -4.2382 0.445222 0.479663 -5.09115 5.00027 1.06174 -5.0764 8.40187 1.952 -0.0 0.0 -0.0 1.47996 -1.96931 2.66595 -4.85627 -5.32522 74.3032 0.86387 -23.1676 0.177076 -72.8486 -6.90993 5.31872 0.308193 -13.8562 -3.81922 -0.0 0.0 -0.0 5.97303 27.4881 -9.82616 -10.4724 31.2225 -53.6167 0.583767 16.129 -0.082714 8.17622 -0.215509 1.02131 4.22359 -15.0207 -34.6993 0.0 0.0 0.0 -15.468 -7.64257 6.28243 -41.6494 -0.575019 6.22761 -24.7166 25.9023 3.89316 -40.1491 0.0 0.0 -0.0 0.0 -0.0 17.3664 27.6471 -2.78534 -21.634 -0.272644 -3.28902 -2.28018 -11.206 -0.335783 15.591 -0.0 -0.0 0.0 0.0 0.0 
3064.06 713.979 -593.926 131.081 -76.3741 126.771 -4.37865 0.522126 0.421 -4.37869 0.494279 0.453371 -4.37456 0.345107 0.575115 -4.37476 0.431604 0.513396 -5.2464 4.67649 0.581027 -5.23425 8.17496 1.41607 -0.0 0.0 -0.0 1.19016 -1.99993 2.09519 -6.30297 -5.24941 74.5723 0.762481 -20.692 0.139201 -73.0559 -6.93642 5.31921 0.330912 -14.0431 -3.7463 -0.0 0.0 -0.0 6.07536 28.4202 -9.94821 -8.60781 32.0479 -51.5982 0.563308 15.5917 -0.0771226 8.07819 -0.213793 1.0089 4.16794 -14.9572 -34.2511 0.0 0.0 0.0 -12.9862 -7.17064 4.7584 -42.246 -0.615807 6.30981 -24.4183 26.0494 3.84926 -40.1598 0.0 0.0 -0.0 0.0 -0.0 16.0616 27.8267 -2.4907 -22.5191 -0.257216 -3.42396 -1.49211 -10.6662 -0.219269 17.0002 -0.0 -0.0 0.0 0.0 0.0 
3076.96 717.787 -592.84 125.829 -77.214 121.672 -4.44874 0.427597 0.480685 -4.4487 0.396143 0.506919 -4.44488 0.235063 0.598866 -4.44523 0.326691 0.554228 -4.23643 6.02586 1.61203 -4.20689 9.80507 2.63065 -0.0 0.0 -0.0 0.935536 -3.43408 1.44707 -6.01471 -5.245 76.157 0.403109 -11.293 0.0398554 -74.5574 -7.12833 5.31985 0.333578 -14.3775 -3.87178 -0.0 0.0 -0.0 6.64277 28.3927 -11.1898 -7.09467 31.9568 -49.1614 0.575978 15.9248 -0.0805635 8.80872 -0.226069 1.10141 4.12653 -13.8308 -33.6269 0.0 0.0 0.0 -11.1174 -5.10416 4.37233 -38.9216 -0.399589 5.84673 -24.6593 27.018 3.90856 -40.1657 0.0 0.0 -0.0 0.0 -0.0 14.8457 28.3487 -2.13837 -23.0352 -0.24726 -3.50253 -2.22935 -11.2929 -0.328286 17.6496 -0.0 -0.0 0.0 0.0 0.0 
3084.7 725.945 -585.641 121.748 -78.4355 117.199 -4.60416 0.19195 0.635438 -4.60394 0.151127 0.646364 -4.60178 -0.0413833 0.662504 -4.60239 0.0637639 0.660726 -4.37103 6.91972 1.96341 -4.33321 11.1894 3.1459 -0.0 0.0 -0.0 0.852009 -4.50695 1.16791 -6.24978 -5.01612 77.1641 0.198575 -5.61816 0.00974352 -75.9131 -7.30148 5.31608 0.620447 -14.364 -1.93665 -0.0 0.0 -0.0 6.73195 28.4047 -11.3834 -5.71242 32.7356 -48.2521 0.595174 16.4273 -0.0859114 8.07717 -0.213774 1.00877 3.92706 -14.0117 -32.1532 0.0 0.0 0.0 -9.90481 -3.73181 3.87026 -34.2224 -0.140679 5.17287 -24.6332 27.4481 3.91431 -40.2028 0.0 0.0 -0.0 0.0 -0.0 14.4742 30.7224 -2.86816 -23.2379 -0.243155 -3.53337 -2.68263 -14.8079 -0.397339 17.9003 -0.0 -0.0 0.0 0.0 0.0 
3097.9 734.005 -583.42 117.251 -78.9488 112.747 -4.6565 0.0765666 0.755181 -4.65619 0.0283587 0.758522 -4.65529 -0.191944 0.734384 -4.65603 -0.0735565 0.75548 -2.76945 7.7683 1.3556 -2.6967 13.0447 2.51034 -0.0 0.0 -0.0 0.7913 -5.10663 0.98236 -8.16375 -5.3982 77.4341 0.192256 -5.44045 0.0091346 -76.9319 -7.43149 5.31052 1.82671 -15.3491 5.73241 -0.0 0.0 -0.0 7.03414 28.2525 -12.0614 -3.89081 32.1165 -47.074 0.625925 17.2269 -0.0948138 7.72044 -0.20735 0.963659 3.73153 -14.4022 -30.7969 0.0 0.0 0.0 -8.84818 -2.24514 4.03089 -27.4558 0.133075 4.17116 -24.4843 28.9647 3.92744 -40.108 0.0 0.0 -0.0 0.0 -0.0 13.8988 32.4813 -3.27009 -23.7198 -0.23296 -3.60661 -2.8711 -17.6909 -0.428333 16.7146 -0.0 -0.0 0.0 0.0 0.0 
3104.73 736.082 -582.578 117.019 -79.4832 112.289 -4.59505 -0.0736143 0.782311 -4.59472 -0.123244 0.776042 -4.59599 -0.341425 0.707718 -4.59662 -0.225372 0.752754 -4.52943 7.01048 0.413861 -4.48892 12.5451 1.58846 -0.0 0.0 -0.0 0.654756 -5.19191 0.698858 -9.12214 -5.68325 78.4569 0.197398 -5.58507 0.00962862 -77.6047 -7.51725 5.30558 3.02772 -17.66 12.7744 -0.0 0.0 -0.0 6.81359 27.316 -11.6809 -2.81122 31.5137 -44.8502 0.860595 23.089 -0.175789 7.46254 -0.202531 0.931067 3.55737 -14.7625 -29.6148 0.0 0.0 0.0 -8.60602 1.84435 3.41708 -22.6645 0.254482 3.44611 -22.8622 28.6721 3.65982 -40.1351 0.0 0.0 -0.0 0.0 -0.0 12.8487 33.8964 -2.9116 -22.699 -0.253826 -3.45136 -1.59136 -19.0863 -0.237801 15.8954 -0.0 -0.0 0.0 0.0 0.0 
3123.73 737.996 -585.055 131.049 -77.707 126.738 -4.6327 0.4383 0.796324 -4.63243 0.386741 0.822598 -4.62605 0.133153 0.899165 -4.62707 0.273483 0.866856 -3.38374 8.28184 -0.169556 -3.29281 15.2233 1.06292 -0.0 0.0 -0.0 -0.0674544 -0.504651 -0.19077 -11.0679 -5.88659 79.0158 0.322783 -9.08473 0.0256439 -78.3005 -7.60585 5.2994 3.08623 -13.9496 14.9686 -0.0 0.0 -0.0 6.95421 26.8038 -12.0434 -1.21183 32.185 -43.7711 0.945841 25.1047 -0.210599 3.99117 -0.123425 0.494752 2.94259 -20.4241 -26.7531 0.0 0.0 0.0 -7.60895 4.11108 2.97758 -22.3494 0.260337 3.3981 -17.7774 29.3314 2.85253 -40.1744 0.0 0.0 -0.0 0.0 -0.0 11.2635 33.9113 -3.06755 -21.2434 -0.278789 -3.22939 -0.427387 -16.7648 -0.0632756 15.3444 -0.0 -0.0 0.0 0.0 0.0 
3141.26 745.031 -586.62 141.175 -75.027 137.42 -4.67374 0.435263 0.809649 -4.67346 0.382863 0.835703 -4.66701 0.125009 0.910685 -4.66807 0.26726 0.879517 -4.65077 9.96368 2.32931 -4.57919 16.5398 4.05091 -0.0 0.0 -0.0 0.221283 1.82259 0.636236 -12.5019 -6.19252 79.6822 0.243917 -6.88976 0.0146831 -77.9543 -7.56178 5.30261 3.20122 -10.0268 17.6099 -0.0 0.0 -0.0 7.98229 27.4659 -14.2296 0.356658 30.3954 -43.01 1.15378 29.749 -0.306456 3.02731 -0.0967826 0.374513 2.55202 -22.1087 -24.5656 0.0 0.0 0.0 -5.73974 10.6983 1.57683 -26.5347 0.161121 4.03258 -6.82942 28.2356 1.07571 -40.2107 0.0 0.0 -0.0 0.0 -0.0 5.05601 35.0707 -1.8981 -11.1978 -0.296687 -1.69015 -1.75927 -16.1642 -0.260834 16.4567 -0.0 -0.0 0.0 0.0 0.0 
